# xmcd
#
# Track frame offsets: 
#        183
#        12613
#        25565
#        46473
#        70275
#        86023
#        105570
#        125600
#        145828
#        164720
#        182588
#        191065
#
# Disc length: 2654 seconds
#
# Revision: 1
# Processed by: cddbd v1.5.1PL0 Copyright (c) Steve Scherf et al.
# Submitted via: ExactAudioCopy v0.90b4
#
DISCID=a80a5c0c
DTITLE=Nanci Griffith - Nanci Griffith Presents Echoes
DYEAR=1900
DGENRE=Country
TTITLE0=Do Re Mi (Woody Guthrie)
TTITLE1=Do Re Mi (Nanci Griffith And Guy Clark)
TTITLE2=Boots Of Spanish Leather (Bob Dylan)
TTITLE3=Boots Of Spanish Leather (Nanci Griffith And Bob Dylon)
TTITLE4=Speed Of The Sound Of Loneliness (John Prine)
TTITLE5=Speed Of The Sound Of Loneliness (Nanci Griffith And John Prin
TTITLE5=e)
TTITLE6=Tecumseh Valley (Townes Van Zandt)
TTITLE7=Tecunseh Valley (Nanci Griffith And Arlo Guthrie)
TTITLE8=Across The Great Divide (Katie Wolf)
TTITLE9=Across The Great Divide (Nanci Griffith And Emmylou Harris)
TTITLE10=Wimoweh (The Weavers)
TTITLE11=Wimoweh (Nanci Griffith With The Indigo Girls, Leo Kottke, Od
TTITLE11=etta)
EXTD=
EXTT0=
EXTT1=
EXTT2=
EXTT3=
EXTT4=
EXTT5=
EXTT6=
EXTT7=
EXTT8=
EXTT9=
EXTT10=
EXTT11=
PLAYORDER=
